<svg width="32" height="32" viewBox="0 0 32 32" fill="none" xmlns="http://www.w3.org/2000/svg">
<circle opacity="0.2" cx="16" cy="16" r="16" fill="#9A9EB0"/>
<g clip-path="url(#clip0_2_685)">
<path d="M21.12 22.4001H10.88V21.1201C10.88 20.2714 11.2171 19.4575 11.8173 18.8573C12.4174 18.2572 13.2313 17.9201 14.08 17.9201H17.92C18.7687 17.9201 19.5826 18.2572 20.1827 18.8573C20.7829 19.4575 21.12 20.2714 21.12 21.1201V22.4001ZM16 16.6401C15.4957 16.6401 14.9964 16.5408 14.5305 16.3478C14.0646 16.1548 13.6413 15.872 13.2847 15.5154C12.9281 15.1588 12.6453 14.7355 12.4523 14.2696C12.2593 13.8037 12.16 13.3044 12.16 12.8001C12.16 12.2958 12.2593 11.7965 12.4523 11.3306C12.6453 10.8647 12.9281 10.4414 13.2847 10.0848C13.6413 9.72822 14.0646 9.44536 14.5305 9.25239C14.9964 9.05941 15.4957 8.96008 16 8.96008C17.0184 8.96008 17.9952 9.36465 18.7153 10.0848C19.4354 10.8049 19.84 11.7817 19.84 12.8001C19.84 13.8185 19.4354 14.7952 18.7153 15.5154C17.9952 16.2355 17.0184 16.6401 16 16.6401Z" fill="#9A9EB0"/>
</g>
<defs>
<clipPath id="clip0_2_685">
<rect width="15.36" height="15.36" fill="white" transform="translate(8.32001 8.32007)"/>
</clipPath>
</defs>
</svg>
